<svg width="283" height="136" viewBox="0 0 283 136" fill="none" xmlns="http://www.w3.org/2000/svg">
<path d="M26.3819 83.0783C27.6592 57.258 28.347 43.8551 28.4453 42.8696C28.6418 41.8841 30.0665 40.3072 32.7194 38.1391C35.3724 35.8725 37.3866 34.7391 38.7622 34.7391C40.2361 34.7391 40.973 36.858 40.973 41.0956C40.973 45.3333 40.0887 49.0783 38.3201 52.3304C37.4358 59.8203 36.8953 65.9304 36.6988 70.6609C46.328 58.4406 51.4373 51.9855 52.0269 51.2957C52.7147 50.6058 53.3042 50.2609 53.7955 50.2609C54.778 50.2609 55.2693 50.7536 55.2693 51.7391C55.2693 52.3304 55.0728 52.971 54.6798 53.6609C51.5356 58.2928 45.3454 66.4232 36.1093 78.0522C35.5198 89.7797 35.1267 97.7623 34.9302 102C34.4389 114.516 32.6703 123.287 29.6244 128.313C26.6767 133.438 21.3708 136 13.7068 136C10.3661 136 7.27099 134.965 4.42155 132.896C1.47385 130.925 0 127.771 0 123.435C0 119.197 1.03169 115.107 3.09508 111.165C5.06021 107.223 7.17273 103.971 9.43263 101.409C11.5943 98.8464 14.6402 95.5449 18.5705 91.5043C22.4025 87.4638 25.0063 84.6551 26.3819 83.0783ZM25.9397 90.0261C14.7385 102.148 9.13786 111.855 9.13786 119.148C9.13786 122.499 9.7274 125.258 10.9065 127.426C12.0856 129.594 13.7068 130.678 15.7702 130.678C18.9144 130.678 21.1252 128.954 22.4025 125.504C23.6798 122.055 24.6133 115.058 25.2028 104.513L25.9397 90.0261ZM30.9508 16.4087C30.9508 14.6348 31.8843 13.1072 33.7511 11.8261C35.618 10.5449 37.2884 9.90434 38.7622 9.90434C41.4151 9.90434 42.7416 11.4319 42.7416 14.487C42.7416 17.542 41.9556 20.2029 40.3835 22.4696C38.8113 24.6377 36.6006 25.7217 33.7511 25.7217C31.8843 25.7217 30.9508 22.6174 30.9508 16.4087Z" fill="#489F2A"/>
<path d="M66.7607 89.4348C61.2584 89.4348 56.886 87.3652 53.6435 83.2261C50.401 78.9884 48.7798 74.2087 48.7798 68.887C48.7798 58.1449 51.0397 50.0145 55.5595 44.4957C60.0793 38.9768 65.9256 36.2174 73.0983 36.2174C76.439 36.2174 79.1902 37.1536 81.3518 39.0261C83.5135 40.8 84.5943 43.2638 84.5943 46.4174C84.5943 52.3304 82.0888 57.3072 77.0777 61.3478C72.1648 65.2899 66.1221 67.3594 58.9493 67.5565C59.3424 71.4 60.6197 74.7507 62.7813 77.6087C65.0413 80.3681 67.6451 81.7478 70.5927 81.7478C73.5404 81.7478 76.1934 81.058 78.5515 79.6783C80.9097 78.2985 83.0713 76.3275 85.0365 73.7652C89.1632 68.3449 92.7005 62.1855 95.6482 55.287C96.4342 53.513 97.0238 52.2319 97.4168 51.4435C97.9081 50.6551 98.3994 50.2609 98.8906 50.2609C99.4802 50.2609 99.7749 50.6551 99.7749 51.4435C99.7749 56.371 96.7781 63.7623 90.7845 73.6174C84.2995 84.1623 76.2916 89.4348 66.7607 89.4348ZM58.9493 64.0087C64.7465 63.0232 68.9715 61.1507 71.6244 58.3913C74.3756 55.6319 75.7512 52.0348 75.7512 47.6C75.7512 43.1652 74.3265 40.9478 71.4771 40.9478C68.0381 40.9478 65.1395 43.3623 62.7813 48.1913C60.4232 52.9217 59.1459 58.1942 58.9493 64.0087Z" fill="#489F2A"/>
<path d="M124.973 64.6C117.211 81.1565 110.628 89.4348 105.224 89.4348C99.9177 89.4348 96.7735 88.7942 95.7909 87.513C94.9066 86.2319 94.4645 81.9942 94.4645 74.8C94.4645 67.6058 95.1523 57.2087 96.5279 43.6087C91.6151 42.6232 89.0112 40.6029 88.7165 37.5478C88.7165 35.971 89.7482 35.1826 91.8116 35.1826C93.8749 35.1826 95.6927 35.5768 97.2648 36.3652C98.1491 29.2696 99.1808 22.0754 100.36 14.7826C100.655 12.9101 101.588 11.1362 103.16 9.46087C104.732 7.78551 106.255 6.94782 107.729 6.94782C109.006 6.94782 109.645 8.96811 109.645 13.0087C109.645 14.8812 108.957 23.5043 107.582 38.8783C110.235 38.3855 113.133 37.4 116.277 35.9217C119.52 34.4435 121.436 33.7043 122.025 33.7043C123.794 33.7043 124.678 34.2464 124.678 35.3304C124.777 36.3159 122.959 37.6957 119.225 39.4696C115.491 41.1449 111.463 42.4261 107.14 43.313C105.961 57.7014 105.371 68.5913 105.371 75.9826C105.371 79.9246 105.961 81.8957 107.14 81.8957C108.908 81.7971 111.266 79.7275 114.214 75.687C117.162 71.6464 120.06 66.4232 122.91 60.0174C125.857 53.513 127.626 50.2609 128.216 50.2609C128.903 50.2609 129.247 50.6551 129.247 51.4435C129.247 54.2029 127.823 58.5884 124.973 64.6Z" fill="#489F2A"/>
<path d="M169.067 93.8696L173.046 93.4261C173.832 93.4261 174.225 93.8203 174.225 94.6087C174.225 95.9884 173.292 97.0232 171.425 97.713C169.558 98.4029 167.445 98.7478 165.087 98.7478C160.666 98.7478 156.932 96.9739 153.886 93.4261C150.938 89.8783 146.811 83.3246 141.506 73.7652C140.228 71.6956 139.59 70.1188 139.59 69.0348C139.59 67.5565 141.653 65.8319 145.78 63.8609C152.461 60.4116 155.802 56.0754 155.802 50.8522C155.802 49.3739 155.262 48.142 154.181 47.1565C153.198 46.0725 151.872 45.5304 150.201 45.5304C147.843 45.5304 145.043 48.3391 141.8 53.9565C138.558 59.4754 136.347 64.6985 135.168 69.6261C134.087 74.4551 133.547 79.6783 133.547 85.2957C133.547 88.0551 132.761 89.4348 131.189 89.4348C128.929 89.4348 126.767 89.1391 124.704 88.5478C122.64 87.858 121.609 87.0203 121.609 86.0348C121.609 84.9507 122.002 80.2696 122.788 71.9913C123.574 63.6145 124.016 57.6029 124.114 53.9565C124.507 33.8522 125.686 18.4783 127.651 7.83478C127.946 6.94782 129.273 5.42029 131.631 3.25218C134.087 1.08406 136.052 0 137.526 0C139 0 139.688 1.87246 139.59 5.61739C139.59 9.26377 138.804 17.1478 137.231 29.2696C135.659 41.3913 134.677 52.4783 134.284 62.5304C136.052 56.2232 138.853 50.2609 142.685 44.6435C146.615 39.0261 150.545 36.2174 154.475 36.2174C161.157 36.2174 164.498 39.4696 164.498 45.9739C164.498 50.3101 163.22 54.2522 160.666 57.8C158.111 61.2493 154.672 64.058 150.349 66.2261C149.464 66.6203 149.022 67.0638 149.022 67.5565C149.022 68.0493 149.17 68.542 149.464 69.0348C155.655 79.9739 160.911 87.6609 165.235 92.0956C166.414 93.2783 167.691 93.8696 169.067 93.8696Z" fill="#489F2A"/>
<path d="M177.581 16.4087C177.581 14.6348 178.515 13.1072 180.382 11.8261C182.249 10.5449 183.919 9.90434 185.393 9.90434C188.046 9.90434 189.372 11.4319 189.372 14.487C189.372 17.542 188.586 20.2029 187.014 22.4696C185.442 24.6377 183.231 25.7217 180.382 25.7217C178.515 25.7217 177.581 22.6174 177.581 16.4087ZM181.856 89.4348C178.024 89.4348 175.125 88.6464 173.16 87.0696C172.472 86.3797 172.128 83.9159 172.128 79.6783C172.128 75.4406 172.423 68.3942 173.013 58.5391C173.7 48.5855 174.29 43.2145 174.781 42.4261C175.272 41.6377 176.795 40.1594 179.35 37.9913C181.905 35.8232 183.87 34.7391 185.245 34.7391C186.719 34.7391 187.456 36.6116 187.456 40.3565C187.456 41.342 187.162 43.2638 186.572 46.1217C186.081 48.9797 185.491 51.0493 184.803 52.3304C183.526 55.5826 182.887 64.1072 182.887 77.9043C182.887 80.5652 183.182 81.8957 183.772 81.8957C185.442 81.7971 187.751 79.7275 190.699 75.687C193.646 71.5478 196.545 66.2754 199.394 59.8696C202.342 53.4638 204.111 50.2609 204.7 50.2609C205.388 50.2609 205.732 50.6551 205.732 51.4435C205.732 54.2029 204.307 58.5884 201.458 64.6C193.696 81.1565 187.161 89.4348 181.856 89.4348Z" fill="#489F2A"/>
<path d="M222.8 55.5826C210.911 55.5826 203.394 53.7101 200.25 49.9652C198.678 48.0928 197.892 45.9739 197.892 43.6087C197.892 41.2435 198.58 39.4696 199.955 38.287C201.429 37.0058 202.952 36.3652 204.524 36.3652C206.194 36.3652 207.57 37.0551 208.651 38.4348C209.732 39.7159 210.272 40.9478 210.272 42.1304C210.272 43.9043 212.237 45.1855 216.168 45.9739C220.098 46.6638 223.93 47.0087 227.664 47.0087C231.496 41.5884 234.198 38.5333 235.77 37.8435C236.359 37.6464 236.998 37.5478 237.686 37.5478C239.258 37.5478 240.044 39.1246 240.044 42.2783C240.044 45.4319 239.356 47.8464 237.981 49.5217C236.605 51.1971 234.198 52.7739 230.759 54.2522C224.962 59.5739 219.263 65.7333 213.662 72.7304C216.217 73.3217 220.098 74.5043 225.305 76.2783C230.513 77.9536 233.51 78.7913 234.296 78.7913C238.324 78.7913 243.286 72.2377 249.182 59.1304C251.835 53.2174 253.456 50.2609 254.045 50.2609C254.733 50.2609 255.077 51 255.077 52.4783C255.077 53.9565 253.652 57.9971 250.803 64.6C243.237 81.6493 236.064 90.1739 229.285 90.1739C228.597 90.1739 225.453 88.942 219.852 86.4783C214.252 84.0145 210.027 82.7826 207.177 82.7826C204.721 86.429 202.362 88.2522 200.103 88.2522C198.629 88.2522 197.892 86.9217 197.892 84.2609C197.892 81.5014 198.973 78.7913 201.134 76.1304C203.394 73.371 205.801 71.9913 208.356 71.9913C215.234 64.3043 220.049 58.8348 222.8 55.5826Z" fill="#489F2A"/>
<path fill-rule="evenodd" clip-rule="evenodd" d="M281.337 57.9396C276.532 60.6122 271.665 66.0726 266.734 74.3266L263.343 80.0015L261.264 76.0541C260.12 73.8827 259.098 72.0122 258.993 71.8965C258.887 71.7807 256.666 72.8985 254.056 74.3811L249.312 77.0767L252.883 79.2362C254.848 80.4247 258.131 83.0392 260.181 85.0461C262.232 87.0537 264.047 88.6957 264.215 88.6957C264.384 88.6957 265.678 86.994 267.091 84.9133C270.185 80.3591 278.112 72.1501 280.973 70.5384C282.956 69.4214 283.036 69.1316 282.992 63.1839C282.968 59.7784 282.948 57.0039 282.948 57.0187C282.948 57.0327 282.223 57.4471 281.337 57.9396Z" fill="#489F2A"/>
</svg>
